<svg width="32" height="32" viewBox="0 0 32 32" fill="none" xmlns="http://www.w3.org/2000/svg">
<mask id="mask0_977_3744" style="mask-type:luminance" maskUnits="userSpaceOnUse" x="0" y="0" width="32" height="32">
<path d="M0 0H32V32H0V0Z" fill="white"/>
</mask>
<g mask="url(#mask0_977_3744)">
<path d="M13.5 0C13.5013 0.787784 13.3471 1.56808 13.0463 2.29617C12.7455 3.02426 12.3039 3.68584 11.747 4.243L8.00001 8L4.25301 11.757C3.69607 12.3142 3.25454 12.9757 2.95373 13.7038C2.65292 14.4319 2.49873 15.2122 2.50001 16C2.49873 16.7878 2.65292 17.5681 2.95373 18.2962C3.25454 19.0243 3.69607 19.6858 4.25301 20.243L8.00001 24L11.747 27.757C12.3039 28.3142 12.7454 28.9758 13.0462 29.7039C13.347 30.4319 13.5012 31.2122 13.5 32M18.5 0C18.4987 0.787784 18.6529 1.56808 18.9537 2.29617C19.2545 3.02426 19.6961 3.68584 20.253 4.243L24 8L27.747 11.757C28.3039 12.3142 28.7454 12.9758 29.0462 13.7039C29.347 14.4319 29.5012 15.2122 29.5 16C29.5013 16.7878 29.3471 17.5681 29.0463 18.2962C28.7455 19.0243 28.3039 19.6858 27.747 20.243L24 24L20.253 27.757C19.6961 28.3142 19.2546 28.9758 18.9538 29.7039C18.653 30.4319 18.4988 31.2122 18.5 32" stroke="#FAFAFA" stroke-miterlimit="10"/>
<path d="M32 2.50001C31.2122 2.49873 30.4319 2.65292 29.7038 2.95373C28.9757 3.25454 28.3142 3.69607 27.757 4.25301L24 8.00001L20.243 11.747C19.6858 12.3039 19.0242 12.7454 18.2961 13.0462C17.5681 13.347 16.7878 13.5012 16 13.5C15.2122 13.5013 14.4319 13.3471 13.7038 13.0463C12.9757 12.7455 12.3142 12.3039 11.757 11.747L8 8.00001L4.243 4.25301C3.68584 3.69607 3.02426 3.25454 2.29617 2.95373C1.56808 2.65292 0.787784 2.49873 0 2.50001M32 29.5C31.2122 29.5013 30.4319 29.3471 29.7038 29.0463C28.9757 28.7455 28.3142 28.3039 27.757 27.747L24 24L20.243 20.253C19.6858 19.6961 19.0242 19.2546 18.2961 18.9538C17.5681 18.653 16.7878 18.4988 16 18.5C15.2122 18.4987 14.4319 18.6529 13.7038 18.9537C12.9757 19.2545 12.3142 19.6961 11.757 20.253L8 24L4.243 27.747C3.68581 28.3039 3.02422 28.7454 2.29614 29.0462C1.56805 29.347 0.787776 29.5012 0 29.5" stroke="#FAFAFA" stroke-miterlimit="10"/>
</g>
</svg>
