<svg width="119" height="114" viewBox="0 0 119 114" fill="none" xmlns="http://www.w3.org/2000/svg">
<path d="M52.8 52.7002C50.4 52.7002 50.4 56.5002 52.8 56.5002C55.3 56.5002 55.3 52.7002 52.8 52.7002Z" fill="#AA7B74" fill-opacity="0.35"/>
<path d="M71.1996 55.4004C69.3996 55.4004 69.3996 58.2004 71.1996 58.2004C72.9996 58.2004 72.9996 55.4004 71.1996 55.4004Z" fill="#AA7B74" fill-opacity="0.35"/>
<path d="M65.2992 78.0998C65.3658 78.3665 65.3992 78.5998 65.3992 78.7998C65.4992 80.5998 68.0992 80.5998 68.1992 78.7998C68.1992 78.5998 68.1992 78.3665 68.1992 78.0998C68.3992 76.1998 65.1992 76.1998 65.2992 78.0998Z" fill="#AA7B74" fill-opacity="0.35"/>
<path d="M41.8004 72.4004C41.1004 72.4004 41.1004 73.5004 41.8004 73.5004C42.5004 73.5004 42.5004 72.4004 41.8004 72.4004Z" fill="#AA7B74" fill-opacity="0.35"/>
<path d="M38.0996 33.5C35.5996 33.5 35.5996 37.5 38.0996 37.5C40.6996 37.5 40.6996 33.5 38.0996 33.5Z" fill="#AA7B74" fill-opacity="0.35"/>
<path d="M68.999 19.7002C66.699 19.7002 66.599 23.4001 68.999 23.4001C71.299 23.4001 71.299 19.7002 68.999 19.7002Z" fill="#AA7B74" fill-opacity="0.35"/>
<path d="M100.599 33.0996C98.3992 33.0996 98.3992 36.3996 100.599 36.3996C102.699 36.3996 102.699 33.0996 100.599 33.0996Z" fill="#AA7B74" fill-opacity="0.35"/>
<path d="M90.9996 83.7002C88.7996 83.7002 88.7996 87.2002 90.9996 87.2002C93.2996 87.2002 93.2996 83.7002 90.9996 83.7002Z" fill="#AA7B74" fill-opacity="0.35"/>
<path d="M80.6996 107.9C78.3996 107.9 78.3996 111.5 80.6996 111.5C83.0996 111.5 83.0996 107.9 80.6996 107.9Z" fill="#AA7B74" fill-opacity="0.35"/>
<path d="M57.2004 108.6C55.8004 108.6 55.8004 110.9 57.2004 110.9C58.7004 110.9 58.7004 108.6 57.2004 108.6Z" fill="#AA7B74" fill-opacity="0.35"/>
<path d="M30.8008 88.5996C28.3008 88.5996 28.3008 92.5996 30.8008 92.5996C33.3008 92.5996 33.3008 88.5996 30.8008 88.5996Z" fill="#AA7B74" fill-opacity="0.35"/>
<path d="M2.1 64.2002C-0.7 64.2002 -0.7 68.5002 2.1 68.5002C4.9 68.5002 4.9 64.2002 2.1 64.2002Z" fill="#AA7B74" fill-opacity="0.35"/>
<path d="M104.999 57.5C102.099 57.5 102.099 62 104.999 62C107.899 62 107.899 57.5 104.999 57.5Z" fill="#AA7B74" fill-opacity="0.35"/>
<path d="M64.6 35.2998C61.8 35.2998 61.8 39.6998 64.6 39.6998C67.5 39.6998 67.5 35.2998 64.6 35.2998Z" fill="#AA7B74" fill-opacity="0.35"/>
<path d="M40.4996 0C37.2996 0 37.2996 5.09998 40.4996 5.09998C43.7996 5.09998 43.7996 0 40.4996 0Z" fill="#AA7B74" fill-opacity="0.35"/>
<path d="M56.1004 84.5C51.5004 84.5 51.5004 91.6 56.1004 91.6C60.7004 91.6 60.7004 84.5 56.1004 84.5Z" fill="#AA7B74" fill-opacity="0.35"/>
<path d="M116.6 96C113.5 96 113.5 100.9 116.6 100.9C119.7 100.9 119.7 96 116.6 96Z" fill="#AA7B74" fill-opacity="0.35"/>
<path d="M28.6998 110.3C28.5665 110.3 28.4331 110.333 28.2998 110.4C27.2998 110.4 26.3998 111.1 26.4998 112.1C26.4998 113.1 27.2998 113.9 28.2998 113.9C28.4331 113.9 28.5665 113.9 28.6998 113.9C29.6998 114 30.5998 113.1 30.4998 112.1C30.4998 111.2 29.6998 110.3 28.6998 110.3Z" fill="#AA7B74" fill-opacity="0.35"/>
<path d="M28.6996 57.2002C31.5996 57.2002 31.5996 52.7002 28.6996 52.7002C25.8996 52.7002 25.8996 57.2002 28.6996 57.2002Z" fill="#AA7B74" fill-opacity="0.35"/>
<path d="M92.4008 43C91.3008 43 90.2008 43.5 89.5008 44.2C88.8008 44.9 88.3008 46.1 88.3008 47.1C88.4008 48.1 88.7008 49.2 89.5008 49.9C90.3008 50.7 91.3008 51.1 92.4008 51.1C93.4008 51.1 94.5008 50.7 95.2008 49.9C96.0008 49.2 96.5008 48.1 96.4008 47.1C96.4008 46 96.0008 44.9 95.2008 44.2C94.5008 43.5 93.5008 43 92.4008 43Z" fill="#AA7B74" fill-opacity="0.35"/>
</svg>
