<svg width="688" height="862" viewBox="0 0 688 862" fill="none" xmlns="http://www.w3.org/2000/svg">
<path fill-rule="evenodd" clip-rule="evenodd" d="M549.431 637.67C555.921 629.22 554.231 616.54 562.651 608.57C563.431 607.84 563.761 605.66 563.251 604.7C560.381 599.22 563.991 595.83 566.601 591.79C568.321 589.12 571.091 584.82 566.091 583.1C560.841 581.3 564.101 579.46 565.711 578.6C577.431 572.45 578.011 558.44 586.181 549.53C589.431 545.98 592.441 538.24 592.121 533.13C591.681 526.2 595.601 524.1 599.021 520.49C599.931 519.53 599.921 517.36 599.781 515.8C599.441 512.09 597.641 508.86 595.841 505.67L595.871 504.95C596.031 502.28 595.381 497.72 596.491 497.24C604.701 493.7 601.591 484.95 605.221 479.37C606.611 477.23 606.631 471.6 601.751 472.53C597.441 473.36 591.551 473.33 589.311 478.48C583.181 492.6 571.641 503.6 566.451 518.15C564.211 524.42 558.451 525.77 553.901 528.77C552.331 529.8 551.381 528.06 550.851 525.83C548.681 516.63 552.781 510.53 559.721 505.45C562.771 503.22 565.631 500.82 567.621 497.44C576.041 483.12 579.021 467.3 580.691 451.1C580.041 450.23 579.391 449.35 578.741 448.48C582.651 444.35 586.981 440.37 583.851 433.8C583.171 432.37 583.941 432.01 585.161 431.78C590.061 430.84 590.071 427.04 590.061 423.26C590.051 420.74 592.611 410.04 593.881 407.22C594.101 406.74 594.561 406 594.391 405.77C589.881 399.88 597.021 396.84 597.661 392.23C598.771 390.46 598.491 388.58 598.111 386.69L598.411 386.62C598.781 386.58 599.151 386.54 599.521 386.5C599.141 386.4 598.751 386.3 598.371 386.2C598.131 385.78 598.031 385.33 598.061 384.85C598.331 382.4 598.611 379.96 598.881 377.51C600.611 372.58 605.471 368.04 600.131 362.32C598.481 360.55 600.451 358.98 602.181 358.01C604.721 357.81 605.871 359.76 607.391 361.25C608.641 362.47 606.481 365.44 609.701 365.54C610.991 365.58 611.671 364.94 611.771 363.69C611.961 361.37 611.361 360.05 608.741 359.07C607.131 358.47 606.781 355.63 604.671 354.05C602.901 352.73 602.121 346.87 605.661 345.62C610.631 343.87 609.301 339.48 612.371 336.54C608.871 335.53 605.041 341.73 603.731 335.12C602.111 333.25 600.471 330.86 598.931 335.03C598.931 335.02 598.921 335.02 598.921 335.01C593.731 328.58 594.761 321.3 598.821 315.62C607.641 303.3 614.371 289.86 622.221 277.07C632.041 261.06 642.631 245.41 652.991 229.67C655.481 225.88 656.981 221.61 656.971 216.92C650.841 223.33 647.361 231.37 641.361 237.57C634.021 236.36 628.101 232.94 624.551 226.23C623.501 224.25 622.711 222.31 620.191 222.29C619.681 222.28 619.001 223.22 618.681 223.87C617.271 226.66 619.091 228.42 620.911 230.03C622.401 231.34 625.341 231.58 624.471 234.55C623.611 237.47 620.961 237.42 618.541 237.55C618.461 237.08 618.371 236.6 618.281 236.13C618.041 236.25 617.811 236.38 617.571 236.5C617.891 236.85 618.211 237.2 618.531 237.55C624.961 243.22 620.121 247.84 617.491 252.55C614.451 253.09 616.261 247.57 613.231 249.41C611.161 250.67 612.271 253.04 613.291 255.13C615.241 259.12 620.721 259.47 622.001 263.99C616.481 271.69 612.741 281.13 602.321 284.02C597.361 283.4 592.701 282.11 589.181 278.23C591.321 276.12 591.711 273.9 590.301 271.07C588.131 266.72 585.111 271.26 582.711 270.09C582.681 269.54 582.651 268.98 582.621 268.43C581.551 265.05 584.191 263.3 586.261 262.33C591.171 260.01 591.091 257.01 588.581 253.12C592.441 252 594.851 249.86 592.461 245.74C589.811 241.19 591.991 237.95 594.711 234.67C598.071 234.03 602.411 233.77 601.011 228.87C600.371 226.61 597.371 223.61 595.301 223.49C591.311 223.25 592.061 228.08 590.521 230.58C590.011 231.4 590.871 233.07 591.111 234.35C586.661 237 582.221 239.64 577.771 242.29C579.921 237.12 586.341 233.4 583.161 226.42C586.211 226.26 588.561 224.28 588.451 221.7C588.281 217.68 584.641 223.86 583.451 220.58C583.251 220.03 582.181 219.8 581.511 219.42C581.481 217.18 583.051 216 584.591 214.8C591.421 213.81 587.971 207.97 588.981 203.32C591.261 206.53 592.381 211.02 596.091 206.34C599.611 207.41 598.681 210.67 599.401 213.1C598.481 215.1 594.681 215.83 596.281 218.74C597.191 220.39 599.361 222.31 601.041 222.39C606.591 222.65 603.871 217.27 605.571 214.79C611.481 210.59 605.461 206.11 605.891 201.78C604.161 202.3 601.971 205.14 600.871 202.18C598.851 196.78 595.571 199.91 592.631 200.2C591.051 199.77 589.471 199.33 587.891 198.9C593.221 188.18 597.731 177 604.681 167.16C608.121 162.29 609.031 156.98 608.711 151.27C611.151 148.88 609.111 146.45 608.771 144.04C614.601 146.09 614.341 141.54 615.741 138.09C617.541 133.64 614.101 135.53 612.621 134.98C611.741 131.52 608.671 130.02 606.151 128.26C603.661 126.51 603.221 124.75 604.501 122.24C607.631 116.82 606.791 110.77 607.151 104.93C607.171 104.64 606.141 104.28 605.421 103.94C605.441 104.71 605.461 105.47 605.471 106.24C604.591 105.76 603.811 105.29 603.961 104.79C603.811 105.29 604.601 105.77 605.471 106.24C605.451 105.47 605.431 104.71 605.421 103.94C605.421 103.91 605.421 103.88 605.421 103.86L605.161 103.82C611.051 86.99 621.461 72.25 629.361 55.47C626.031 55.6 625.361 56.75 624.561 57.86C619.021 65.55 612.601 72.74 609.451 81.86C607.861 86.46 602.871 87.29 600.741 92.3C597.571 99.78 593.171 108.56 582.841 109.92C581.351 104.27 582.791 99.16 586.511 94.97C589.221 91.93 586.921 90.04 585.721 87.87C584.771 86.16 583.031 86.13 581.511 87.09C579.361 88.44 577.311 90.24 579.031 92.99C582.171 98.03 578.201 100.83 575.911 104.22C570.761 104.38 567.221 106.12 568.111 112.19C564.391 109.54 559.591 102.77 560.351 114.8C560.531 117.64 556.641 119.03 553.411 118.52C550.801 118.11 548.251 117.38 545.671 116.79C546.371 114.71 548.881 111.86 544.431 111.38C539.901 110.89 537.351 114.51 536.321 118.01C535.401 121.14 538.631 119.65 540.211 119.79L540.471 120.36C540.521 122.5 540.571 124.65 540.621 126.79C533.761 128.58 538.851 133.05 538.481 136.31C536.121 136.95 533.761 137.59 531.401 138.22C531.951 135.86 532.501 133.49 533.041 131.13C533.321 130.53 533.951 129.8 533.791 129.36C533.351 128.17 532.371 128.28 531.421 128.91C526.251 133.23 526.781 140.95 521.651 145.29C511.201 144.9 514.671 151.8 515.381 157.25C513.491 159.51 511.751 161.93 509.681 164C506.621 167.05 502.851 170.57 498.661 167.18C494.451 163.76 498.791 159.94 499.991 156.38C500.681 154.34 501.971 153.64 504.161 153.48C506.131 153.33 508.241 151.24 506.961 149.62C502.931 144.5 505.571 139.5 506.181 134.37C506.381 132.74 506.961 129.17 503.131 131.95C501.151 130.65 501.361 128.5 501.031 126.55C503.661 121.83 506.511 117.22 508.891 112.38C516.551 96.82 527.861 83.31 534.201 67.03C537.471 62.07 540.451 56.99 541.201 50.9C537.691 54.66 534.741 58.69 533.511 63.73C530.971 65.18 525.161 64.35 526.571 68.52C528.731 74.91 524.261 77.87 522.111 82.15C517.111 92.09 508.801 99.46 502.061 108.03C498.001 113.19 494.131 118.1 486.581 116.9C485.851 115.63 485.121 114.37 484.381 113.1C501.891 81.57 522.031 51.47 537.951 17.52C534.041 18.68 533.451 20.64 532.541 22.23C523.791 37.51 514.961 52.75 506.411 68.14C493.351 91.67 477.271 113.29 463.431 136.32C462.891 137.22 461.761 137.83 461.391 138.76C457.871 147.59 447.831 150.54 444.721 161.19C439.631 178.59 424.861 191.27 415.531 206.84C409.741 216.5 402.161 225.4 398.161 235.71C394.841 244.29 391.911 241.77 386.991 238.73C390.951 233 394.521 227.27 398.661 221.98C408.431 209.48 413.501 194.37 421.901 181.04C429.461 169.04 435.851 156.03 437.701 141.48C442.481 136.69 442.721 129.67 446.151 124.22C442.661 119.46 450.661 110.2 439.921 108.16C439.821 108.14 439.801 106.03 440.251 105.17C441.521 102.74 440.011 100.99 439.021 99.15C434.851 91.36 430.621 83.61 426.421 75.85C412.761 50.58 399.091 25.32 385.381 0C382.331 1.77 381.661 4.55 380.421 6.86C329.151 101.54 277.911 196.25 226.681 290.95C171.131 393.65 115.591 496.37 60.0407 599.07C40.6907 634.86 21.4307 670.69 1.86074 706.36C-1.59926 712.67 -0.309261 714.13 6.45074 713.78C14.0207 713.4 21.6407 713.77 29.2307 713.82C31.7707 715.25 33.9507 715.12 35.5507 712.4C40.3207 713.55 45.1607 713.96 50.0407 713.65C53.5007 713.43 57.1707 714.67 60.3707 712.75C64.0407 710.54 62.2307 706.36 62.7007 702.99C67.8707 704.7 64.1907 709.2 65.9207 712.01C74.8907 703.32 78.2107 697.8 79.7407 689.57C79.8107 689.22 80.5707 688.99 81.0107 688.71C81.0007 688.72 80.8507 688.89 80.8507 688.89C80.9307 688.85 80.9907 688.83 81.0607 688.8C81.0407 688.77 81.0307 688.74 81.0107 688.71C83.2607 686.48 78.2707 678.02 87.1807 681.5C87.3707 680.76 87.8707 679.95 87.7107 679.3C85.5907 671 95.9307 663.74 87.4807 654.69C94.1907 656.01 95.1607 659.86 96.6407 663.29C97.2507 664.71 97.4407 666.91 99.5207 666.6C101.461 666.31 101.681 664.38 101.161 662.79C99.8607 658.75 102.761 658.32 105.391 657.58C105.391 657.58 105.901 658.09 105.891 658.09C106.061 659.64 103.271 662.17 106.611 662.55C110.231 662.97 111.341 658.68 111.001 656.91C109.841 650.72 113.491 649.19 120.371 648.34C114.531 645.87 114.611 642.57 115.901 639.62C117.311 636.41 119.931 637.18 122.601 638.62C125.531 640.2 126.151 637.6 127.101 635.69C128.291 633.31 126.691 630.39 128.521 628.16C128.431 628.11 128.341 628.04 128.251 627.99C128.341 628.05 128.431 628.11 128.521 628.16L128.531 628.17C132.841 629.72 132.951 626.4 133.311 623.83C133.841 620.09 133.871 616.28 134.421 612.55C134.811 609.86 136.881 607.04 139.011 610.19C145.051 619.11 146.271 610.59 146.931 607.72C148.431 601.19 148.581 594.36 149.281 587.65C149.921 587.62 150.571 587.58 151.211 587.55C156.941 586.18 156.001 577.71 156.811 577.72C167.301 577.87 162.651 565.53 169.411 563.14C169.171 552.56 178.361 546.88 183.271 539.47C188.691 531.28 194.331 523.32 198.491 514.37C204.031 502.45 207.661 489.81 212.091 477.4C213.991 478.57 212.651 481.89 215.211 481.87C217.451 481.85 217.781 479.38 218.531 477.74C219.551 475.53 220.301 473.2 221.251 470.95C225.591 460.74 230.341 453.92 236.841 449.64C230.751 465 227.951 479.96 219.301 492.92C206.561 511.99 197.961 533.28 187.921 553.79C187.131 555.41 186.361 557.76 186.951 559.21C188.931 564.02 186.661 567.11 184.031 570.77C181.721 573.99 178.531 578.44 185.471 580.83C185.511 581.64 185.551 582.45 185.591 583.26C178.971 586.86 175.481 592.78 173.081 599.66C172.311 601.88 170.661 603.82 169.291 605.8C162.251 615.95 156.681 626.57 158.221 639.53C150.791 637.62 148.941 641.21 150.111 647.77C150.811 650.48 151.511 653.18 152.531 657.11C157.031 650.45 161.571 645.82 163.691 639.45C164.761 636.22 167.401 633.44 171.181 635.64C175.611 638.22 173.451 641.57 171.181 644.52C170.361 645.58 169.381 646.55 168.351 647.41C163.361 651.53 161.101 657.38 158.461 662.97C153.631 673.19 156.111 685.5 150.031 695.15C146.821 700.25 150.061 706.02 146.431 710.84C144.931 712.84 145.881 713.55 160.921 713.71C164.441 713.75 167.971 713.69 171.491 713.72C172.831 713.73 175.181 713.52 175.371 714.04C178.081 721.51 181.501 716.5 184.311 714.47C189.731 710.57 190.431 718.41 194.491 718.33C196.281 718.29 197.781 721.33 196.691 722.83C192.251 728.98 193.691 737.17 189.211 743.21C189.631 743.57 190.041 743.93 190.451 744.29C196.051 742.31 197.071 745.9 197.281 750.1C197.811 760.6 194.741 770.93 189.521 779.17C181.421 791.96 174.201 805.34 165.081 817.57C156.841 828.61 150.131 840.8 142.791 852.5C141.041 855.29 140.591 858.37 143.531 860.51C146.351 862.55 149.291 861.85 151.311 858.94C163.501 841.46 173.841 822.73 184.201 804.25C194.991 784.98 216.381 761.36 238.671 752.75C233.481 762.85 228.811 771.64 219.451 776.89C218.861 773.47 216.771 773.11 214.501 775.02C212.121 777.03 210.591 779.57 214.551 781.79C214.151 784.89 211.061 784.85 209.241 786.26C201.501 792.23 201.551 795.43 209.651 801.6C208.831 805.45 202.641 803.12 202.501 808.07C202.221 817.77 196.231 825.45 190.371 831.7C185.521 836.86 185.481 842.81 181.741 848.05C186.451 848.72 186.831 845.32 188.231 843.34C202.331 823.36 215.041 802.34 232.241 784.67C233.831 784.13 235.421 783.6 237.021 783.06C235.431 783.6 233.831 784.13 232.231 784.68C231.641 787.97 229.911 791.29 232.531 794.47C232.611 796.6 232.471 799.11 235.841 797.69C238.281 796.66 240.741 796.06 243.371 796.21C244.591 800.01 239.621 802.12 240.691 805.89C243.831 806.93 246.751 807.72 246.071 802.43C245.741 799.85 245.751 797.22 245.611 794.61C247.241 794.85 248.241 794.07 248.791 792.56C249.331 792.65 249.871 792.74 250.421 792.83C253.651 797.05 257.711 797.72 262.161 794.78C262.991 795.37 263.821 795.96 264.651 796.55C267.351 798.01 269.971 798.64 272.581 795.97C269.941 793.65 267.701 795.12 265.461 795.81C265.021 793.72 264.621 791.59 261.641 793.12C260.561 793.03 259.471 792.94 258.381 792.86C261.021 789.79 263.661 786.72 266.301 783.65C268.661 780.87 274.561 783.86 275.171 778.21C277.041 776.37 280.521 777.65 282.311 774.3C279.521 773.52 276.741 774.62 275.631 769.67C274.461 764.4 279.241 764.15 279.171 762.83C278.761 754.8 283.361 757.34 287.561 757.87C289.071 758.06 291.561 759.04 292.321 756.33C292.951 754.06 291.781 752.79 289.611 752.27L289.421 752.1C289.411 751.57 289.431 751.05 289.501 750.52C291.621 747.88 295.431 746.66 296.011 742.74C298.191 743.44 299.161 741.45 300.661 740.64C302.701 742.29 304.741 743.94 306.781 745.59C308.181 747.41 307.231 749.25 306.671 750.99C302.351 764.49 294.701 776.18 286.581 787.59C285.021 789.78 282.541 791.57 284.131 794.67C285.451 797.23 287.781 798.94 290.591 799.02C293.881 799.12 295.051 796.31 295.861 793.68C297.141 789.54 298.051 785.54 303.631 784.75C306.381 784.36 308.211 781.17 307.421 778.4C305.201 770.62 309.781 766.28 314.821 761.99C316.041 760.95 318.091 760.15 318.391 758.91C321.461 746.3 332.201 742.69 342.231 738.33C347.601 736 351.681 732.3 355.641 728.08C363.471 719.78 373.051 714.9 385.571 714.49C380.331 730.76 372.751 745.31 368.711 761.08C370.701 761.62 371.611 761.37 372.451 760.46C373.231 759.62 373.581 758.01 375.261 758.46C377.231 761.07 371.651 765.43 376.881 766.75C380.701 767.72 381.711 763.28 383.821 761.14C388.581 756.34 388.571 746.96 398.001 746.5C398.521 746.47 399.481 744.1 399.281 742.99C398.631 739.48 399.921 736.09 397.791 732.26C395.641 728.4 395.921 719.93 399.111 719.11C407.431 716.96 408.151 710.96 410.191 704.94C410.921 702.79 411.681 700.33 414.901 700.08C418.401 699.8 418.571 702.7 419.721 704.57C420.971 706.62 421.921 708.87 422.821 711.11C423.281 712.24 422.831 714.64 424.491 714.11C429.591 712.47 436.921 714.69 439.151 707.76C442.141 698.47 447.941 690.05 447.531 679.65C447.301 674.02 447.801 668.32 448.401 662.7C448.721 659.73 450.891 657.65 454.071 658.17C457.031 658.65 457.351 661.31 457.481 663.87C457.691 667.86 455.461 671.13 454.461 674.76C453.741 677.36 453.111 680.28 455.281 682.47C457.491 684.71 459.771 682.52 462.051 682.07C468.211 680.85 471.941 676.95 473.871 671.34C478.511 657.88 490.831 648.81 494.551 634.86C494.681 634.36 495.111 633.93 495.451 633.51C498.301 630.01 501.701 628.03 506.041 630.66C510.491 633.37 510.071 637.41 508.031 641.35C506.001 645.27 502.601 648.01 499.171 650.74C492.431 656.1 487.751 662.6 486.051 671.45C484.461 679.71 479.861 687.15 480.061 696.12C480.151 700.11 480.471 705.31 478.681 708.4C475.201 714.42 479.181 713.56 482.261 713.63C490.401 713.79 498.561 713.3 506.671 713.79C511.881 714.11 514.231 712.56 515.731 707.41C518.781 696.95 521.041 685.68 526.681 676.67C534.731 663.89 540.161 649.74 549.431 637.67ZM547.161 296.92C547.161 296.96 547.141 297 547.141 297.05C547.141 297.01 547.161 296.97 547.161 296.92ZM565.131 312.71L565.071 312.75C565.061 312.76 565.061 312.76 565.051 312.77C565.041 312.78 565.131 312.7 565.131 312.71C566.241 311.99 567.141 311.11 567.711 309.98C567.141 311.12 566.241 312 565.131 312.71ZM575.181 299.56C575.191 301.59 574.521 303.22 573.221 304.51C574.521 303.23 575.201 301.59 575.181 299.56C577.191 299.48 579.211 299.41 581.221 299.33C579.211 299.41 577.191 299.49 575.181 299.56ZM597.661 353.71C597.661 353.73 597.651 353.74 597.651 353.76C597.651 353.74 597.651 353.73 597.661 353.71ZM597.451 354.85C597.441 354.93 597.421 355.01 597.411 355.09C597.411 355.01 597.441 354.93 597.451 354.85ZM585.791 278.04L585.831 278.08C585.811 278.07 585.801 278.05 585.791 278.04ZM538.871 136.78C539.541 137.27 540.201 137.75 540.871 138.24C541.241 138.68 541.611 139.12 541.981 139.55C541.611 139.11 541.241 138.67 540.871 138.24C540.211 137.75 539.541 137.26 538.871 136.78C538.871 136.78 538.831 136.72 538.771 136.66L538.871 136.78ZM88.8307 588.05C89.0607 587.86 89.2907 587.66 89.5207 587.47C89.2907 587.66 89.0507 587.86 88.8307 588.05ZM257.751 765.66C257.751 765.66 257.751 765.65 257.761 765.65C257.761 765.66 257.751 765.66 257.751 765.66ZM245.581 794.52C245.581 794.53 245.581 794.53 245.581 794.54C245.571 794.54 245.581 794.53 245.581 794.52ZM267.171 773.3C266.621 771.66 266.801 769.77 266.031 768.2C266.801 769.77 266.611 771.66 267.171 773.3ZM469.501 640.86C468.351 643.15 467.861 645.77 467.921 648.65C467.861 645.77 468.341 643.15 469.501 640.86ZM475.071 635.03C475.061 635.03 475.061 635.03 475.071 635.03C475.081 634.98 475.101 634.92 475.121 634.87C475.101 634.93 475.081 634.98 475.071 635.03C475.121 635 475.151 634.97 475.201 634.94C475.151 634.97 475.111 635 475.071 635.03ZM498.081 136.61C498.041 136.41 498.001 136.21 497.951 136.02C498.001 136.21 498.051 136.41 498.081 136.61ZM497.751 135.38C497.691 135.23 497.631 135.08 497.551 134.95C497.621 135.08 497.691 135.23 497.751 135.38ZM498.051 138.68C498.091 138.64 498.131 138.61 498.171 138.57C498.131 138.61 498.091 138.65 498.051 138.68ZM497.131 134.39C497.041 134.3 496.961 134.21 496.861 134.13C496.961 134.21 497.051 134.3 497.131 134.39ZM496.671 134.02C496.581 133.96 496.491 133.9 496.391 133.86C496.491 133.91 496.581 133.97 496.671 134.02ZM496.061 133.76C495.981 133.73 495.901 133.7 495.801 133.69C495.901 133.7 495.981 133.74 496.061 133.76Z" fill="#EBB884"/>
<path fill-rule="evenodd" clip-rule="evenodd" d="M181.6 729.66C177.8 727.47 179.06 732.21 178.07 733.85C172.51 743.07 174.09 754.52 168.74 764.08C174.19 758.26 177.1 750.81 182.95 745.45C185.13 743.45 185.89 739.88 186.68 736.66C187.81 732.03 183.55 730.78 181.6 729.66Z" fill="#EBB884"/>
<path fill-rule="evenodd" clip-rule="evenodd" d="M625.831 209.1C625.751 212.58 629.311 211.33 631.551 211.47L631.571 211.51C631.611 214.44 632.851 218.22 631.481 220.15C626.361 227.34 632.011 227.84 636.421 229.38C635.121 225.39 636.231 222.15 639.191 219.22C643.151 215.31 640.771 210.04 639.781 206.42C638.861 203.05 634.351 205.73 631.701 207.58C631.491 207.73 631.191 207.73 630.941 207.84C629.241 208.55 625.911 205.57 625.831 209.1Z" fill="#EBB884"/>
<path fill-rule="evenodd" clip-rule="evenodd" d="M687.441 114.28C677.191 120.78 666.871 127.16 660.521 137.9C671.831 132.66 679.081 122.78 687.441 114.28Z" fill="#EBB884"/>
<path fill-rule="evenodd" clip-rule="evenodd" d="M280.911 801.62C275.691 801.75 275.081 806.92 274.191 810.36C273.361 813.58 276.241 816.9 279.731 816.87C285.501 816.83 284.261 811.33 285.641 807.36C285.601 804.52 284.521 801.52 280.911 801.62Z" fill="#EBB884"/>
<path fill-rule="evenodd" clip-rule="evenodd" d="M405.031 770.53C409.161 763.65 413.851 756.99 413.981 746.86C405.921 753.9 405.711 762.31 405.031 770.53Z" fill="#EBB884"/>
<path fill-rule="evenodd" clip-rule="evenodd" d="M612.791 193.23C614.001 191.31 611.911 190.42 610.401 189.99C608.181 189.36 607.981 190.67 607.811 192.61C607.531 195.65 606.651 198.63 606.021 201.64C611.281 201.35 610.881 196.26 612.791 193.23Z" fill="#EBB884"/>
<path fill-rule="evenodd" clip-rule="evenodd" d="M606.021 201.65C605.971 201.65 605.941 201.66 605.891 201.66C605.891 201.69 605.891 201.73 605.891 201.76C605.931 201.75 605.971 201.73 606.011 201.72C606.001 201.7 606.011 201.67 606.021 201.65Z" fill="#EBB884"/>
<path fill-rule="evenodd" clip-rule="evenodd" d="M266.06 804.28C263.58 800.75 258.88 803.26 255.47 801.67C254.66 803.56 256.7 804.4 257 805.89C256.91 806.07 256.82 806.25 256.73 806.43C256.82 806.25 256.91 806.08 257 805.89C257.91 806.41 259.07 806.73 259.67 807.5C260.76 808.89 260.1 812.7 263.6 810.43C265.66 809.09 267.56 806.42 266.06 804.28Z" fill="#EBB884"/>
<path fill-rule="evenodd" clip-rule="evenodd" d="M248.141 831.92C246.091 832.57 244.491 833.94 244.561 836.36C244.621 838.46 246.021 839.97 248.161 839.79C250.541 839.58 251.981 837.91 251.921 835.45C251.881 833.26 250.501 832.13 248.141 831.92Z" fill="#EBB884"/>
<path fill-rule="evenodd" clip-rule="evenodd" d="M588.702 71.0999C590.822 70.8099 592.132 69.3699 592.262 67.2799C592.402 64.9799 590.852 63.96 588.732 63.7C586.362 64.42 584.972 65.9399 585.292 68.4599C585.522 70.3099 586.822 71.3499 588.702 71.0999Z" fill="#EBB884"/>
<path fill-rule="evenodd" clip-rule="evenodd" d="M573.192 100.3C574.562 99.47 575.632 97.73 575.482 95.58C575.362 93.87 574.012 92.69 572.212 92.88C570.042 93.12 569.102 94.79 569.102 96.8C569.102 98.88 570.022 100.35 573.192 100.3Z" fill="#EBB884"/>
<path fill-rule="evenodd" clip-rule="evenodd" d="M620.66 340.96C619.24 342.64 619.96 345.63 622.71 346.92C628.28 349.54 624.67 341.58 628.76 342.4C625.85 340.86 623.06 338.14 620.66 340.96Z" fill="#EBB884"/>
<path fill-rule="evenodd" clip-rule="evenodd" d="M240.651 805.96C240.691 805.95 240.741 805.95 240.781 805.94C240.771 805.91 240.771 805.88 240.761 805.85C240.721 805.84 240.681 805.82 240.641 805.81C240.641 805.86 240.641 805.91 240.651 805.96Z" fill="#EBB884"/>
<path fill-rule="evenodd" clip-rule="evenodd" d="M239.2 811.4C241.54 810.58 240.85 808 240.65 805.96C238.43 806.27 236.21 806.59 233.99 806.89C236.12 808.26 235.97 812.52 239.2 811.4Z" fill="#EBB884"/>
<path fill-rule="evenodd" clip-rule="evenodd" d="M271.042 829.88C267.572 832.22 265.432 835.39 264.852 839.57C268.442 837.45 269.992 833.85 271.782 830.43C274.242 829.23 276.142 827.66 276.032 824.09C272.102 824.64 271.602 827.29 271.042 829.88Z" fill="#EBB884"/>
<path fill-rule="evenodd" clip-rule="evenodd" d="M600.67 248.07C600.94 248.67 601.74 249.24 602.41 249.42C603.34 249.67 603.88 249.22 602.88 247.52C602.65 247.34 601.86 246.72 601.07 246.11C600.91 246.78 600.45 247.58 600.67 248.07Z" fill="#EBB884"/>
<path fill-rule="evenodd" clip-rule="evenodd" d="M617.072 378.76C617.032 379.42 617.372 380.1 617.642 381.16C618.332 380.27 618.972 379.76 619.152 379.12C619.322 378.52 619.172 377.32 618.852 377.19C617.562 376.69 617.132 377.75 617.072 378.76Z" fill="#EBB884"/>
<path fill-rule="evenodd" clip-rule="evenodd" d="M638.921 230.75C638.131 230.33 637.341 229.9 636.561 229.49C637.221 230.12 637.881 230.75 638.531 231.37C638.661 231.16 638.791 230.96 638.921 230.75Z" fill="#EBB884"/>
<path fill-rule="evenodd" clip-rule="evenodd" d="M636.562 229.48C636.532 229.45 636.492 229.41 636.462 229.38C636.452 229.37 636.442 229.37 636.432 229.37C636.432 229.38 636.432 229.4 636.442 229.41C636.472 229.44 636.512 229.46 636.562 229.48Z" fill="#EBB884"/>
<path fill-rule="evenodd" clip-rule="evenodd" d="M189.091 746.34C189.951 746.77 190.481 745.32 190.511 744.27C190.101 743.91 189.681 743.55 189.271 743.19C188.491 744.23 187.581 745.59 189.091 746.34Z" fill="#EBB884"/>
<path fill-rule="evenodd" clip-rule="evenodd" d="M82.2601 689.83C82.2001 689.03 81.9301 688.49 81.0801 688.8C81.3901 689.37 81.6901 689.94 82.0001 690.52C82.1001 690.29 82.2801 690.05 82.2601 689.83Z" fill="#EBB884"/>
<path fill-rule="evenodd" clip-rule="evenodd" d="M614.191 370.3L613.751 370.06L613.701 370.43L614.191 370.3Z" fill="#EBB884"/>
</svg>
