<svg width="2000" height="1000" viewBox="0 0 2000 1000" fill="none" xmlns="http://www.w3.org/2000/svg">
<g clip-path="url(#clip0_1007_4342)">
<g clip-path="url(#clip1_1007_4342)">
<path d="M66.667 0H0V66.667H66.667M66.667 0V66.667M66.667 0H133.334V66.667H66.667" stroke="#CECCD1" stroke-width="0.5"/>
<path d="M200 0H133.333V66.667H200M200 0V66.667M200 0H266.667V66.667H200" stroke="#CECCD1" stroke-width="0.5"/>
<path d="M266.667 0H333.334V66.667H266.667V0Z" stroke="#CECCD1" stroke-width="0.5"/>
<path d="M400 0H333.333V66.667H400M400 0V66.667M400 0H466.667V66.667H400" stroke="#CECCD1" stroke-width="0.5"/>
<path d="M466.667 0H533.334V66.667H466.667V0Z" stroke="#CECCD1" stroke-width="0.5"/>
<path d="M600 0H533.333V66.667H600M600 0V66.667M600 0H666.667M600 66.667H666.667M666.667 0V66.667M666.667 0H733.334V66.667H666.667" stroke="#CECCD1" stroke-width="0.5"/>
<path d="M800 0H733.333V66.667H800M800 0V66.667M800 0H866.667V66.667H800M66.667 66.667H0V133.334H66.667M66.667 66.667V133.334M66.667 66.667H133.334V133.334H66.667" stroke="#CECCD1" stroke-width="0.5"/>
<path d="M200 66.668H133.333V133.335H200M200 66.668V133.335M200 66.668H266.667V133.335H200" stroke="#CECCD1" stroke-width="0.5"/>
<path d="M266.667 66.668H333.334V133.335H266.667V66.668Z" stroke="#CECCD1" stroke-width="0.5"/>
<path d="M400 66.668H333.333V133.335H400M400 66.668V133.335M400 66.668H466.667V133.335H400" stroke="#CECCD1" stroke-width="0.5"/>
<path d="M466.667 66.668H533.334V133.335H466.667V66.668Z" stroke="#CECCD1" stroke-width="0.5"/>
<path d="M600 66.668H533.333V133.335H600M600 66.668V133.335M600 66.668H666.667M600 133.335H666.667M666.667 66.668V133.335M666.667 66.668H733.334V133.335H666.667" stroke="#CECCD1" stroke-width="0.5"/>
<path d="M800 66.668H733.333V133.335H800M800 66.668V133.335M800 66.668H866.667V133.335H800M66.667 133.334H0V200.001H66.667M66.667 133.334V200.001M66.667 133.334H133.334V200.001H66.667" stroke="#CECCD1" stroke-width="0.5"/>
<path d="M200 133.332H133.333V199.999H200M200 133.332V199.999M200 133.332H266.667V199.999H200" stroke="#CECCD1" stroke-width="0.5"/>
<path d="M266.667 133.332H333.334V199.999H266.667V133.332Z" stroke="#CECCD1" stroke-width="0.5"/>
<path d="M400 133.332H333.333V199.999H400M400 133.332V199.999M400 133.332H466.667V199.999H400" stroke="#CECCD1" stroke-width="0.5"/>
<path d="M466.667 133.332H533.334V199.999H466.667V133.332Z" stroke="#CECCD1" stroke-width="0.5"/>
<path d="M600 133.332H533.333V199.999H600M600 133.332V199.999M600 133.332H666.667M600 199.999H666.667M666.667 133.332V199.999M666.667 133.332H733.334V199.999H666.667" stroke="#CECCD1" stroke-width="0.5"/>
<path d="M800 133.332H733.333V199.999H800M800 133.332V199.999M800 133.332H866.667V199.999H800M66.667 199.999H0V266.666H66.667M66.667 199.999V266.666M66.667 199.999H133.334V266.666H66.667" stroke="#CECCD1" stroke-width="0.5"/>
<path d="M200 200H133.333V266.667H200M200 200V266.667M200 200H266.667V266.667H200" stroke="#CECCD1" stroke-width="0.5"/>
<path d="M266.667 200H333.334V266.667H266.667V200Z" stroke="#CECCD1" stroke-width="0.5"/>
<path d="M400 200H333.333V266.667H400M400 200V266.667M400 200H466.667V266.667H400" stroke="#CECCD1" stroke-width="0.5"/>
<path d="M466.667 200H533.334V266.667H466.667V200Z" stroke="#CECCD1" stroke-width="0.5"/>
<path d="M600 200H533.333V266.667H600M600 200V266.667M600 200H666.667M600 266.667H666.667M666.667 200V266.667M666.667 200H733.334V266.667H666.667" stroke="#CECCD1" stroke-width="0.5"/>
<path d="M800 200H733.333V266.667H800M800 200V266.667M800 200H866.667V266.667H800M66.667 266.667H0V333.334H66.667M66.667 266.667V333.334M66.667 266.667H133.334V333.334H66.667" stroke="#CECCD1" stroke-width="0.5"/>
<path d="M200 266.668H133.333V333.335H200M200 266.668V333.335M200 266.668H266.667V333.335H200" stroke="#CECCD1" stroke-width="0.5"/>
<path d="M266.667 266.668H333.334V333.335H266.667V266.668Z" stroke="#CECCD1" stroke-width="0.5"/>
<path d="M400 266.668H333.333V333.335H400M400 266.668V333.335M400 266.668H466.667V333.335H400" stroke="#CECCD1" stroke-width="0.5"/>
<path d="M466.667 266.668H533.334V333.335H466.667V266.668Z" stroke="#CECCD1" stroke-width="0.5"/>
<path d="M600 266.668H533.333V333.335H600M600 266.668V333.335M600 266.668H666.667M600 333.335H666.667M666.667 266.668V333.335M666.667 266.668H733.334V333.335H666.667" stroke="#CECCD1" stroke-width="0.5"/>
<path d="M800 266.668H733.333V333.335H800M800 266.668V333.335M800 266.668H866.667V333.335H800M66.667 333.334H0V400.001H66.667M66.667 333.334V400.001M66.667 333.334H133.334V400.001H66.667" stroke="#CECCD1" stroke-width="0.5"/>
<path d="M200 333.332H133.333V399.999H200M200 333.332V399.999M200 333.332H266.667V399.999H200" stroke="#CECCD1" stroke-width="0.5"/>
<path d="M266.667 333.332H333.334V399.999H266.667V333.332Z" stroke="#CECCD1" stroke-width="0.5"/>
<path d="M400 333.332H333.333V399.999H400M400 333.332V399.999M400 333.332H466.667V399.999H400" stroke="#CECCD1" stroke-width="0.5"/>
<path d="M466.667 333.332H533.334V399.999H466.667V333.332Z" stroke="#CECCD1" stroke-width="0.5"/>
<path d="M600 333.332H533.333V399.999H600M600 333.332V399.999M600 333.332H666.667M600 399.999H666.667M666.667 333.332V399.999M666.667 333.332H733.334V399.999H666.667" stroke="#CECCD1" stroke-width="0.5"/>
<path d="M800 333.332H733.333V399.999H800M800 333.332V399.999M800 333.332H866.667V399.999H800M66.667 399.999H0V466.666H66.667M66.667 399.999V466.666M66.667 399.999H133.334V466.666H66.667" stroke="#CECCD1" stroke-width="0.5"/>
<path d="M200 400H133.333V466.667H200M200 400V466.667M200 400H266.667V466.667H200" stroke="#CECCD1" stroke-width="0.5"/>
<path d="M266.667 400H333.334V466.667H266.667V400Z" stroke="#CECCD1" stroke-width="0.5"/>
<path d="M400 400H333.333V466.667H400M400 400V466.667M400 400H466.667V466.667H400" stroke="#CECCD1" stroke-width="0.5"/>
<path d="M466.667 400H533.334V466.667H466.667V400Z" stroke="#CECCD1" stroke-width="0.5"/>
<path d="M600 400H533.333V466.667H600M600 400V466.667M600 400H666.667M600 466.667H666.667M666.667 400V466.667M666.667 400H733.334V466.667H666.667" stroke="#CECCD1" stroke-width="0.5"/>
<path d="M800 400H733.333V466.667H800M800 400V466.667M800 400H866.667V466.667H800M66.667 466.667H0V533.334H66.667M66.667 466.667V533.334M66.667 466.667H133.334V533.334H66.667" stroke="#CECCD1" stroke-width="0.5"/>
<path d="M200 466.668H133.333V533.335H200M200 466.668V533.335M200 466.668H266.667V533.335H200" stroke="#CECCD1" stroke-width="0.5"/>
<path d="M266.667 466.668H333.334V533.335H266.667V466.668Z" stroke="#CECCD1" stroke-width="0.5"/>
<path d="M400 466.668H333.333V533.335H400M400 466.668V533.335M400 466.668H466.667V533.335H400" stroke="#CECCD1" stroke-width="0.5"/>
<path d="M466.667 466.668H533.334V533.335H466.667V466.668Z" stroke="#CECCD1" stroke-width="0.5"/>
<path d="M600 466.668H533.333V533.335H600M600 466.668V533.335M600 466.668H666.667M600 533.335H666.667M666.667 466.668V533.335M666.667 466.668H733.334V533.335H666.667" stroke="#CECCD1" stroke-width="0.5"/>
<path d="M800 466.668H733.333V533.335H800M800 466.668V533.335M800 466.668H866.667V533.335H800M66.667 533.334H0V600.001H66.667M66.667 533.334V600.001M66.667 533.334H133.334V600.001H66.667" stroke="#CECCD1" stroke-width="0.5"/>
<path d="M200 533.332H133.333V599.999H200M200 533.332V599.999M200 533.332H266.667V599.999H200" stroke="#CECCD1" stroke-width="0.5"/>
<path d="M266.667 533.332H333.334V599.999H266.667V533.332Z" stroke="#CECCD1" stroke-width="0.5"/>
<path d="M400 533.332H333.333V599.999H400M400 533.332V599.999M400 533.332H466.667V599.999H400" stroke="#CECCD1" stroke-width="0.5"/>
<path d="M466.667 533.332H533.334V599.999H466.667V533.332Z" stroke="#CECCD1" stroke-width="0.5"/>
<path d="M600 533.332H533.333V599.999H600M600 533.332V599.999M600 533.332H666.667M600 599.999H666.667M666.667 533.332V599.999M666.667 533.332H733.334V599.999H666.667" stroke="#CECCD1" stroke-width="0.5"/>
<path d="M800 533.332H733.333V599.999H800M800 533.332V599.999M800 533.332H866.667V599.999H800M66.667 599.999H0V666.666H66.667M66.667 599.999V666.666M66.667 599.999H133.334V666.666H66.667" stroke="#CECCD1" stroke-width="0.5"/>
<path d="M200 600H133.333V666.667H200M200 600V666.667M200 600H266.667V666.667H200" stroke="#CECCD1" stroke-width="0.5"/>
<path d="M266.667 600H333.334V666.667H266.667V600Z" stroke="#CECCD1" stroke-width="0.5"/>
<path d="M400 600H333.333V666.667H400M400 600V666.667M400 600H466.667V666.667H400" stroke="#CECCD1" stroke-width="0.5"/>
<path d="M466.667 600H533.334V666.667H466.667V600Z" stroke="#CECCD1" stroke-width="0.5"/>
<path d="M600 600H533.333V666.667H600M600 600V666.667M600 600H666.667M600 666.667H666.667M666.667 600V666.667M666.667 600H733.334V666.667H666.667" stroke="#CECCD1" stroke-width="0.5"/>
<path d="M800 600H733.333V666.667H800M800 600V666.667M800 600H866.667V666.667H800M66.667 666.667H0V733.334H66.667M66.667 666.667V733.334M66.667 666.667H133.334V733.334H66.667" stroke="#CECCD1" stroke-width="0.5"/>
<path d="M200 666.668H133.333V733.335H200M200 666.668V733.335M200 666.668H266.667V733.335H200" stroke="#CECCD1" stroke-width="0.5"/>
<path d="M266.667 666.668H333.334V733.335H266.667V666.668Z" stroke="#CECCD1" stroke-width="0.5"/>
<path d="M400 666.668H333.333V733.335H400M400 666.668V733.335M400 666.668H466.667V733.335H400" stroke="#CECCD1" stroke-width="0.5"/>
<path d="M466.667 666.668H533.334V733.335H466.667V666.668Z" stroke="#CECCD1" stroke-width="0.5"/>
<path d="M600 666.668H533.333V733.335H600M600 666.668V733.335M600 666.668H666.667M600 733.335H666.667M666.667 666.668V733.335M666.667 666.668H733.334V733.335H666.667" stroke="#CECCD1" stroke-width="0.5"/>
<path d="M800 666.668H733.333V733.335H800M800 666.668V733.335M800 666.668H866.667V733.335H800M66.667 733.334H0V800.001H66.667M66.667 733.334V800.001M66.667 733.334H133.334V800.001H66.667" stroke="#CECCD1" stroke-width="0.5"/>
<path d="M200 733.332H133.333V799.999H200M200 733.332V799.999M200 733.332H266.667V799.999H200" stroke="#CECCD1" stroke-width="0.5"/>
<path d="M266.667 733.332H333.334V799.999H266.667V733.332Z" stroke="#CECCD1" stroke-width="0.5"/>
<path d="M400 733.332H333.333V799.999H400M400 733.332V799.999M400 733.332H466.667V799.999H400" stroke="#CECCD1" stroke-width="0.5"/>
<path d="M466.667 733.332H533.334V799.999H466.667V733.332Z" stroke="#CECCD1" stroke-width="0.5"/>
<path d="M600 733.332H533.333V799.999H600M600 733.332V799.999M600 733.332H666.667M600 799.999H666.667M666.667 733.332V799.999M666.667 733.332H733.334V799.999H666.667" stroke="#CECCD1" stroke-width="0.5"/>
<path d="M800 733.332H733.333V799.999H800M800 733.332V799.999M800 733.332H866.667V799.999H800M66.667 799.999H0V866.666H66.667M66.667 799.999V866.666M66.667 799.999H133.334V866.666H66.667" stroke="#CECCD1" stroke-width="0.5"/>
<path d="M200 800H133.333V866.667H200M200 800V866.667M200 800H266.667V866.667H200" stroke="#CECCD1" stroke-width="0.5"/>
<path d="M266.667 800H333.334V866.667H266.667V800Z" stroke="#CECCD1" stroke-width="0.5"/>
<path d="M400 800H333.333V866.667H400M400 800V866.667M400 800H466.667V866.667H400" stroke="#CECCD1" stroke-width="0.5"/>
<path d="M466.667 800H533.334V866.667H466.667V800Z" stroke="#CECCD1" stroke-width="0.5"/>
<path d="M600 800H533.333V866.667H600M600 800V866.667M600 800H666.667M600 866.667H666.667M666.667 800V866.667M666.667 800H733.334V866.667H666.667" stroke="#CECCD1" stroke-width="0.5"/>
<path d="M800 800H733.333V866.667H800M800 800V866.667M800 800H866.667V866.667H800" stroke="#CECCD1" stroke-width="0.5"/>
</g>
<g clip-path="url(#clip2_1007_4342)">
<path d="M866.667 0H800V66.667H866.667M866.667 0V66.667M866.667 0H933.334V66.667H866.667" stroke="#CECCD1" stroke-width="0.5"/>
<path d="M1000 0H933.333V66.667H1000M1000 0V66.667M1000 0H1066.67V66.667H1000" stroke="#CECCD1" stroke-width="0.5"/>
<path d="M1066.67 0H1133.33V66.667H1066.67V0Z" stroke="#CECCD1" stroke-width="0.5"/>
<path d="M1200 0H1133.33V66.667H1200M1200 0V66.667M1200 0H1266.67V66.667H1200" stroke="#CECCD1" stroke-width="0.5"/>
<path d="M1266.67 0H1333.33V66.667H1266.67V0Z" stroke="#CECCD1" stroke-width="0.5"/>
<path d="M1400 0H1333.33V66.667H1400M1400 0V66.667M1400 0H1466.67M1400 66.667H1466.67M1466.67 0V66.667M1466.67 0H1533.33V66.667H1466.67" stroke="#CECCD1" stroke-width="0.5"/>
<path d="M1600 0H1533.33V66.667H1600M1600 0V66.667M1600 0H1666.67V66.667H1600M866.667 66.667H800V133.334H866.667M866.667 66.667V133.334M866.667 66.667H933.334V133.334H866.667" stroke="#CECCD1" stroke-width="0.5"/>
<path d="M1000 66.668H933.333V133.335H1000M1000 66.668V133.335M1000 66.668H1066.67V133.335H1000" stroke="#CECCD1" stroke-width="0.5"/>
<path d="M1066.67 66.668H1133.33V133.335H1066.67V66.668Z" stroke="#CECCD1" stroke-width="0.5"/>
<path d="M1200 66.668H1133.33V133.335H1200M1200 66.668V133.335M1200 66.668H1266.67V133.335H1200" stroke="#CECCD1" stroke-width="0.5"/>
<path d="M1266.67 66.668H1333.33V133.335H1266.67V66.668Z" stroke="#CECCD1" stroke-width="0.5"/>
<path d="M1400 66.668H1333.33V133.335H1400M1400 66.668V133.335M1400 66.668H1466.67M1400 133.335H1466.67M1466.67 66.668V133.335M1466.67 66.668H1533.33V133.335H1466.67" stroke="#CECCD1" stroke-width="0.5"/>
<path d="M1600 66.668H1533.33V133.335H1600M1600 66.668V133.335M1600 66.668H1666.67V133.335H1600M866.667 133.334H800V200.001H866.667M866.667 133.334V200.001M866.667 133.334H933.334V200.001H866.667" stroke="#CECCD1" stroke-width="0.5"/>
<path d="M1000 133.332H933.333V199.999H1000M1000 133.332V199.999M1000 133.332H1066.67V199.999H1000" stroke="#CECCD1" stroke-width="0.5"/>
<path d="M1066.67 133.332H1133.33V199.999H1066.67V133.332Z" stroke="#CECCD1" stroke-width="0.5"/>
<path d="M1200 133.332H1133.33V199.999H1200M1200 133.332V199.999M1200 133.332H1266.67V199.999H1200" stroke="#CECCD1" stroke-width="0.5"/>
<path d="M1266.67 133.332H1333.33V199.999H1266.67V133.332Z" stroke="#CECCD1" stroke-width="0.5"/>
<path d="M1400 133.332H1333.33V199.999H1400M1400 133.332V199.999M1400 133.332H1466.67M1400 199.999H1466.67M1466.67 133.332V199.999M1466.67 133.332H1533.33V199.999H1466.67" stroke="#CECCD1" stroke-width="0.5"/>
<path d="M1600 133.332H1533.33V199.999H1600M1600 133.332V199.999M1600 133.332H1666.67V199.999H1600M866.667 199.999H800V266.666H866.667M866.667 199.999V266.666M866.667 199.999H933.334V266.666H866.667" stroke="#CECCD1" stroke-width="0.5"/>
<path d="M1000 200H933.333V266.667H1000M1000 200V266.667M1000 200H1066.67V266.667H1000" stroke="#CECCD1" stroke-width="0.5"/>
<path d="M1066.67 200H1133.33V266.667H1066.67V200Z" stroke="#CECCD1" stroke-width="0.5"/>
<path d="M1200 200H1133.33V266.667H1200M1200 200V266.667M1200 200H1266.67V266.667H1200" stroke="#CECCD1" stroke-width="0.5"/>
<path d="M1266.67 200H1333.33V266.667H1266.67V200Z" stroke="#CECCD1" stroke-width="0.5"/>
<path d="M1400 200H1333.33V266.667H1400M1400 200V266.667M1400 200H1466.67M1400 266.667H1466.67M1466.67 200V266.667M1466.67 200H1533.33V266.667H1466.67" stroke="#CECCD1" stroke-width="0.5"/>
<path d="M1600 200H1533.33V266.667H1600M1600 200V266.667M1600 200H1666.67V266.667H1600M866.667 266.667H800V333.334H866.667M866.667 266.667V333.334M866.667 266.667H933.334V333.334H866.667" stroke="#CECCD1" stroke-width="0.5"/>
<path d="M1000 266.668H933.333V333.335H1000M1000 266.668V333.335M1000 266.668H1066.67V333.335H1000" stroke="#CECCD1" stroke-width="0.5"/>
<path d="M1066.67 266.668H1133.33V333.335H1066.67V266.668Z" stroke="#CECCD1" stroke-width="0.5"/>
<path d="M1200 266.668H1133.33V333.335H1200M1200 266.668V333.335M1200 266.668H1266.67V333.335H1200" stroke="#CECCD1" stroke-width="0.5"/>
<path d="M1266.67 266.668H1333.33V333.335H1266.67V266.668Z" stroke="#CECCD1" stroke-width="0.5"/>
<path d="M1400 266.668H1333.33V333.335H1400M1400 266.668V333.335M1400 266.668H1466.67M1400 333.335H1466.67M1466.67 266.668V333.335M1466.67 266.668H1533.33V333.335H1466.67" stroke="#CECCD1" stroke-width="0.5"/>
<path d="M1600 266.668H1533.33V333.335H1600M1600 266.668V333.335M1600 266.668H1666.67V333.335H1600M866.667 333.334H800V400.001H866.667M866.667 333.334V400.001M866.667 333.334H933.334V400.001H866.667" stroke="#CECCD1" stroke-width="0.5"/>
<path d="M1000 333.332H933.333V399.999H1000M1000 333.332V399.999M1000 333.332H1066.67V399.999H1000" stroke="#CECCD1" stroke-width="0.5"/>
<path d="M1066.67 333.332H1133.33V399.999H1066.67V333.332Z" stroke="#CECCD1" stroke-width="0.5"/>
<path d="M1200 333.332H1133.33V399.999H1200M1200 333.332V399.999M1200 333.332H1266.67V399.999H1200" stroke="#CECCD1" stroke-width="0.5"/>
<path d="M1266.67 333.332H1333.33V399.999H1266.67V333.332Z" stroke="#CECCD1" stroke-width="0.5"/>
<path d="M1400 333.332H1333.33V399.999H1400M1400 333.332V399.999M1400 333.332H1466.67M1400 399.999H1466.67M1466.67 333.332V399.999M1466.67 333.332H1533.33V399.999H1466.67" stroke="#CECCD1" stroke-width="0.5"/>
<path d="M1600 333.332H1533.33V399.999H1600M1600 333.332V399.999M1600 333.332H1666.67V399.999H1600M866.667 399.999H800V466.666H866.667M866.667 399.999V466.666M866.667 399.999H933.334V466.666H866.667" stroke="#CECCD1" stroke-width="0.5"/>
<path d="M1000 400H933.333V466.667H1000M1000 400V466.667M1000 400H1066.67V466.667H1000" stroke="#CECCD1" stroke-width="0.5"/>
<path d="M1066.67 400H1133.33V466.667H1066.67V400Z" stroke="#CECCD1" stroke-width="0.5"/>
<path d="M1200 400H1133.33V466.667H1200M1200 400V466.667M1200 400H1266.67V466.667H1200" stroke="#CECCD1" stroke-width="0.5"/>
<path d="M1266.67 400H1333.33V466.667H1266.67V400Z" stroke="#CECCD1" stroke-width="0.5"/>
<path d="M1400 400H1333.33V466.667H1400M1400 400V466.667M1400 400H1466.67M1400 466.667H1466.67M1466.67 400V466.667M1466.67 400H1533.33V466.667H1466.67" stroke="#CECCD1" stroke-width="0.5"/>
<path d="M1600 400H1533.33V466.667H1600M1600 400V466.667M1600 400H1666.67V466.667H1600M866.667 466.667H800V533.334H866.667M866.667 466.667V533.334M866.667 466.667H933.334V533.334H866.667" stroke="#CECCD1" stroke-width="0.5"/>
<path d="M1000 466.668H933.333V533.335H1000M1000 466.668V533.335M1000 466.668H1066.67V533.335H1000" stroke="#CECCD1" stroke-width="0.5"/>
<path d="M1066.67 466.668H1133.33V533.335H1066.67V466.668Z" stroke="#CECCD1" stroke-width="0.5"/>
<path d="M1200 466.668H1133.33V533.335H1200M1200 466.668V533.335M1200 466.668H1266.67V533.335H1200" stroke="#CECCD1" stroke-width="0.5"/>
<path d="M1266.67 466.668H1333.33V533.335H1266.67V466.668Z" stroke="#CECCD1" stroke-width="0.5"/>
<path d="M1400 466.668H1333.33V533.335H1400M1400 466.668V533.335M1400 466.668H1466.67M1400 533.335H1466.67M1466.67 466.668V533.335M1466.67 466.668H1533.33V533.335H1466.67" stroke="#CECCD1" stroke-width="0.5"/>
<path d="M1600 466.668H1533.33V533.335H1600M1600 466.668V533.335M1600 466.668H1666.67V533.335H1600M866.667 533.334H800V600.001H866.667M866.667 533.334V600.001M866.667 533.334H933.334V600.001H866.667" stroke="#CECCD1" stroke-width="0.5"/>
<path d="M1000 533.332H933.333V599.999H1000M1000 533.332V599.999M1000 533.332H1066.67V599.999H1000" stroke="#CECCD1" stroke-width="0.5"/>
<path d="M1066.67 533.332H1133.33V599.999H1066.67V533.332Z" stroke="#CECCD1" stroke-width="0.5"/>
<path d="M1200 533.332H1133.33V599.999H1200M1200 533.332V599.999M1200 533.332H1266.67V599.999H1200" stroke="#CECCD1" stroke-width="0.5"/>
<path d="M1266.67 533.332H1333.33V599.999H1266.67V533.332Z" stroke="#CECCD1" stroke-width="0.5"/>
<path d="M1400 533.332H1333.33V599.999H1400M1400 533.332V599.999M1400 533.332H1466.67M1400 599.999H1466.67M1466.67 533.332V599.999M1466.67 533.332H1533.33V599.999H1466.67" stroke="#CECCD1" stroke-width="0.5"/>
<path d="M1600 533.332H1533.33V599.999H1600M1600 533.332V599.999M1600 533.332H1666.67V599.999H1600M866.667 599.999H800V666.666H866.667M866.667 599.999V666.666M866.667 599.999H933.334V666.666H866.667" stroke="#CECCD1" stroke-width="0.5"/>
<path d="M1000 600H933.333V666.667H1000M1000 600V666.667M1000 600H1066.67V666.667H1000" stroke="#CECCD1" stroke-width="0.5"/>
<path d="M1066.67 600H1133.33V666.667H1066.67V600Z" stroke="#CECCD1" stroke-width="0.5"/>
<path d="M1200 600H1133.33V666.667H1200M1200 600V666.667M1200 600H1266.67V666.667H1200" stroke="#CECCD1" stroke-width="0.5"/>
<path d="M1266.67 600H1333.33V666.667H1266.67V600Z" stroke="#CECCD1" stroke-width="0.5"/>
<path d="M1400 600H1333.33V666.667H1400M1400 600V666.667M1400 600H1466.67M1400 666.667H1466.67M1466.67 600V666.667M1466.67 600H1533.33V666.667H1466.67" stroke="#CECCD1" stroke-width="0.5"/>
<path d="M1600 600H1533.33V666.667H1600M1600 600V666.667M1600 600H1666.67V666.667H1600M866.667 666.667H800V733.334H866.667M866.667 666.667V733.334M866.667 666.667H933.334V733.334H866.667" stroke="#CECCD1" stroke-width="0.5"/>
<path d="M1000 666.668H933.333V733.335H1000M1000 666.668V733.335M1000 666.668H1066.67V733.335H1000" stroke="#CECCD1" stroke-width="0.5"/>
<path d="M1066.67 666.668H1133.33V733.335H1066.67V666.668Z" stroke="#CECCD1" stroke-width="0.5"/>
<path d="M1200 666.668H1133.33V733.335H1200M1200 666.668V733.335M1200 666.668H1266.67V733.335H1200" stroke="#CECCD1" stroke-width="0.5"/>
<path d="M1266.67 666.668H1333.33V733.335H1266.67V666.668Z" stroke="#CECCD1" stroke-width="0.5"/>
<path d="M1400 666.668H1333.33V733.335H1400M1400 666.668V733.335M1400 666.668H1466.67M1400 733.335H1466.67M1466.67 666.668V733.335M1466.67 666.668H1533.33V733.335H1466.67" stroke="#CECCD1" stroke-width="0.5"/>
<path d="M1600 666.668H1533.33V733.335H1600M1600 666.668V733.335M1600 666.668H1666.67V733.335H1600M866.667 733.334H800V800.001H866.667M866.667 733.334V800.001M866.667 733.334H933.334V800.001H866.667" stroke="#CECCD1" stroke-width="0.5"/>
<path d="M1000 733.332H933.333V799.999H1000M1000 733.332V799.999M1000 733.332H1066.67V799.999H1000" stroke="#CECCD1" stroke-width="0.5"/>
<path d="M1066.67 733.332H1133.33V799.999H1066.67V733.332Z" stroke="#CECCD1" stroke-width="0.5"/>
<path d="M1200 733.332H1133.33V799.999H1200M1200 733.332V799.999M1200 733.332H1266.67V799.999H1200" stroke="#CECCD1" stroke-width="0.5"/>
<path d="M1266.67 733.332H1333.33V799.999H1266.67V733.332Z" stroke="#CECCD1" stroke-width="0.5"/>
<path d="M1400 733.332H1333.33V799.999H1400M1400 733.332V799.999M1400 733.332H1466.67M1400 799.999H1466.67M1466.67 733.332V799.999M1466.67 733.332H1533.33V799.999H1466.67" stroke="#CECCD1" stroke-width="0.5"/>
<path d="M1600 733.332H1533.33V799.999H1600M1600 733.332V799.999M1600 733.332H1666.67V799.999H1600M866.667 799.999H800V866.666H866.667M866.667 799.999V866.666M866.667 799.999H933.334V866.666H866.667" stroke="#CECCD1" stroke-width="0.5"/>
<path d="M1000 800H933.333V866.667H1000M1000 800V866.667M1000 800H1066.67V866.667H1000" stroke="#CECCD1" stroke-width="0.5"/>
<path d="M1066.67 800H1133.33V866.667H1066.67V800Z" stroke="#CECCD1" stroke-width="0.5"/>
<path d="M1200 800H1133.33V866.667H1200M1200 800V866.667M1200 800H1266.67V866.667H1200" stroke="#CECCD1" stroke-width="0.5"/>
<path d="M1266.67 800H1333.33V866.667H1266.67V800Z" stroke="#CECCD1" stroke-width="0.5"/>
<path d="M1400 800H1333.33V866.667H1400M1400 800V866.667M1400 800H1466.67M1400 866.667H1466.67M1466.67 800V866.667M1466.67 800H1533.33V866.667H1466.67" stroke="#CECCD1" stroke-width="0.5"/>
<path d="M1600 800H1533.33V866.667H1600M1600 800V866.667M1600 800H1666.67V866.667H1600" stroke="#CECCD1" stroke-width="0.5"/>
</g>
<g clip-path="url(#clip3_1007_4342)">
<path d="M1666.67 0H1600V66.667H1666.67M1666.67 0V66.667M1666.67 0H1733.33V66.667H1666.67" stroke="#CECCD1" stroke-width="0.5"/>
<path d="M1800 0H1733.33V66.667H1800M1800 0V66.667M1800 0H1866.67V66.667H1800" stroke="#CECCD1" stroke-width="0.5"/>
<path d="M1866.67 0H1933.33V66.667H1866.67V0Z" stroke="#CECCD1" stroke-width="0.5"/>
<path d="M2000 0H1933.33V66.667H2000M2000 0V66.667M2000 0H2066.67V66.667H2000" stroke="#CECCD1" stroke-width="0.5"/>
<path d="M2400 0H2333.33V66.667H2400M2400 0V66.667M2400 0H2466.67V66.667H2400M1666.67 66.667H1600V133.334H1666.67M1666.67 66.667V133.334M1666.67 66.667H1733.33V133.334H1666.67" stroke="#CECCD1" stroke-width="0.5"/>
<path d="M1800 66.668H1733.33V133.335H1800M1800 66.668V133.335M1800 66.668H1866.67V133.335H1800" stroke="#CECCD1" stroke-width="0.5"/>
<path d="M1866.67 66.668H1933.33V133.335H1866.67V66.668Z" stroke="#CECCD1" stroke-width="0.5"/>
<path d="M2000 66.668H1933.33V133.335H2000M2000 66.668V133.335M2000 66.668H2066.67V133.335H2000" stroke="#CECCD1" stroke-width="0.5"/>
<path d="M2400 66.668H2333.33V133.335H2400M2400 66.668V133.335M2400 66.668H2466.67V133.335H2400M1666.67 133.334H1600V200.001H1666.67M1666.67 133.334V200.001M1666.67 133.334H1733.33V200.001H1666.67" stroke="#CECCD1" stroke-width="0.5"/>
<path d="M1800 133.332H1733.33V199.999H1800M1800 133.332V199.999M1800 133.332H1866.67V199.999H1800" stroke="#CECCD1" stroke-width="0.5"/>
<path d="M1866.67 133.332H1933.33V199.999H1866.67V133.332Z" stroke="#CECCD1" stroke-width="0.5"/>
<path d="M2000 133.332H1933.33V199.999H2000M2000 133.332V199.999M2000 133.332H2066.67V199.999H2000" stroke="#CECCD1" stroke-width="0.5"/>
<path d="M2400 133.332H2333.33V199.999H2400M2400 133.332V199.999M2400 133.332H2466.67V199.999H2400M1666.67 199.999H1600V266.666H1666.67M1666.67 199.999V266.666M1666.67 199.999H1733.33V266.666H1666.67" stroke="#CECCD1" stroke-width="0.5"/>
<path d="M1800 200H1733.33V266.667H1800M1800 200V266.667M1800 200H1866.67V266.667H1800" stroke="#CECCD1" stroke-width="0.5"/>
<path d="M1866.67 200H1933.33V266.667H1866.67V200Z" stroke="#CECCD1" stroke-width="0.5"/>
<path d="M2000 200H1933.33V266.667H2000M2000 200V266.667M2000 200H2066.67V266.667H2000" stroke="#CECCD1" stroke-width="0.5"/>
<path d="M2400 200H2333.33V266.667H2400M2400 200V266.667M2400 200H2466.67V266.667H2400M1666.67 266.667H1600V333.334H1666.67M1666.67 266.667V333.334M1666.67 266.667H1733.33V333.334H1666.67" stroke="#CECCD1" stroke-width="0.5"/>
<path d="M1800 266.668H1733.33V333.335H1800M1800 266.668V333.335M1800 266.668H1866.67V333.335H1800" stroke="#CECCD1" stroke-width="0.5"/>
<path d="M1866.67 266.668H1933.33V333.335H1866.67V266.668Z" stroke="#CECCD1" stroke-width="0.5"/>
<path d="M2000 266.668H1933.33V333.335H2000M2000 266.668V333.335M2000 266.668H2066.67V333.335H2000" stroke="#CECCD1" stroke-width="0.5"/>
<path d="M2400 266.668H2333.33V333.335H2400M2400 266.668V333.335M2400 266.668H2466.67V333.335H2400M1666.67 333.334H1600V400.001H1666.67M1666.67 333.334V400.001M1666.67 333.334H1733.33V400.001H1666.67" stroke="#CECCD1" stroke-width="0.5"/>
<path d="M1800 333.332H1733.33V399.999H1800M1800 333.332V399.999M1800 333.332H1866.67V399.999H1800" stroke="#CECCD1" stroke-width="0.5"/>
<path d="M1866.67 333.332H1933.33V399.999H1866.67V333.332Z" stroke="#CECCD1" stroke-width="0.5"/>
<path d="M2000 333.332H1933.33V399.999H2000M2000 333.332V399.999M2000 333.332H2066.67V399.999H2000" stroke="#CECCD1" stroke-width="0.5"/>
<path d="M2400 333.332H2333.33V399.999H2400M2400 333.332V399.999M2400 333.332H2466.67V399.999H2400M1666.67 399.999H1600V466.666H1666.67M1666.67 399.999V466.666M1666.67 399.999H1733.33V466.666H1666.67" stroke="#CECCD1" stroke-width="0.5"/>
<path d="M1800 400H1733.33V466.667H1800M1800 400V466.667M1800 400H1866.67V466.667H1800" stroke="#CECCD1" stroke-width="0.5"/>
<path d="M1866.67 400H1933.33V466.667H1866.67V400Z" stroke="#CECCD1" stroke-width="0.5"/>
<path d="M2000 400H1933.33V466.667H2000M2000 400V466.667M2000 400H2066.67V466.667H2000" stroke="#CECCD1" stroke-width="0.5"/>
<path d="M2400 400H2333.33V466.667H2400M2400 400V466.667M2400 400H2466.67V466.667H2400M1666.67 466.667H1600V533.334H1666.67M1666.67 466.667V533.334M1666.67 466.667H1733.33V533.334H1666.67" stroke="#CECCD1" stroke-width="0.5"/>
<path d="M1800 466.668H1733.33V533.335H1800M1800 466.668V533.335M1800 466.668H1866.67V533.335H1800" stroke="#CECCD1" stroke-width="0.5"/>
<path d="M1866.67 466.668H1933.33V533.335H1866.67V466.668Z" stroke="#CECCD1" stroke-width="0.5"/>
<path d="M2000 466.668H1933.33V533.335H2000M2000 466.668V533.335M2000 466.668H2066.67V533.335H2000" stroke="#CECCD1" stroke-width="0.5"/>
<path d="M2400 466.668H2333.33V533.335H2400M2400 466.668V533.335M2400 466.668H2466.67V533.335H2400M1666.67 533.334H1600V600.001H1666.67M1666.67 533.334V600.001M1666.67 533.334H1733.33V600.001H1666.67" stroke="#CECCD1" stroke-width="0.5"/>
<path d="M1800 533.332H1733.33V599.999H1800M1800 533.332V599.999M1800 533.332H1866.67V599.999H1800" stroke="#CECCD1" stroke-width="0.5"/>
<path d="M1866.67 533.332H1933.33V599.999H1866.67V533.332Z" stroke="#CECCD1" stroke-width="0.5"/>
<path d="M2000 533.332H1933.33V599.999H2000M2000 533.332V599.999M2000 533.332H2066.67V599.999H2000" stroke="#CECCD1" stroke-width="0.5"/>
<path d="M2400 533.332H2333.33V599.999H2400M2400 533.332V599.999M2400 533.332H2466.67V599.999H2400M1666.67 599.999H1600V666.666H1666.67M1666.67 599.999V666.666M1666.67 599.999H1733.33V666.666H1666.67" stroke="#CECCD1" stroke-width="0.5"/>
<path d="M1800 600H1733.33V666.667H1800M1800 600V666.667M1800 600H1866.67V666.667H1800" stroke="#CECCD1" stroke-width="0.5"/>
<path d="M1866.67 600H1933.33V666.667H1866.67V600Z" stroke="#CECCD1" stroke-width="0.5"/>
<path d="M2000 600H1933.33V666.667H2000M2000 600V666.667M2000 600H2066.67V666.667H2000" stroke="#CECCD1" stroke-width="0.5"/>
<path d="M2400 600H2333.33V666.667H2400M2400 600V666.667M2400 600H2466.67V666.667H2400M1666.67 666.667H1600V733.334H1666.67M1666.67 666.667V733.334M1666.67 666.667H1733.33V733.334H1666.67" stroke="#CECCD1" stroke-width="0.5"/>
<path d="M1800 666.668H1733.33V733.335H1800M1800 666.668V733.335M1800 666.668H1866.67V733.335H1800" stroke="#CECCD1" stroke-width="0.5"/>
<path d="M1866.67 666.668H1933.33V733.335H1866.67V666.668Z" stroke="#CECCD1" stroke-width="0.5"/>
<path d="M2000 666.668H1933.33V733.335H2000M2000 666.668V733.335M2000 666.668H2066.67V733.335H2000" stroke="#CECCD1" stroke-width="0.5"/>
<path d="M2400 666.668H2333.33V733.335H2400M2400 666.668V733.335M2400 666.668H2466.67V733.335H2400M1666.67 733.334H1600V800.001H1666.67M1666.67 733.334V800.001M1666.67 733.334H1733.33V800.001H1666.67" stroke="#CECCD1" stroke-width="0.5"/>
<path d="M1800 733.332H1733.33V799.999H1800M1800 733.332V799.999M1800 733.332H1866.67V799.999H1800" stroke="#CECCD1" stroke-width="0.5"/>
<path d="M1866.67 733.332H1933.33V799.999H1866.67V733.332Z" stroke="#CECCD1" stroke-width="0.5"/>
<path d="M2000 733.332H1933.33V799.999H2000M2000 733.332V799.999M2000 733.332H2066.67V799.999H2000" stroke="#CECCD1" stroke-width="0.5"/>
<path d="M2400 733.332H2333.33V799.999H2400M2400 733.332V799.999M2400 733.332H2466.67V799.999H2400M1666.67 799.999H1600V866.666H1666.67M1666.67 799.999V866.666M1666.67 799.999H1733.33V866.666H1666.67" stroke="#CECCD1" stroke-width="0.5"/>
<path d="M1800 800H1733.33V866.667H1800M1800 800V866.667M1800 800H1866.67V866.667H1800" stroke="#CECCD1" stroke-width="0.5"/>
<path d="M1866.67 800H1933.33V866.667H1866.67V800Z" stroke="#CECCD1" stroke-width="0.5"/>
<path d="M2000 800H1933.33V866.667H2000M2000 800V866.667M2000 800H2066.67V866.667H2000" stroke="#CECCD1" stroke-width="0.5"/>
</g>
<g clip-path="url(#clip4_1007_4342)">
<path d="M66.667 800H0V866.667H66.667M66.667 800V866.667M66.667 800H133.334V866.667H66.667" stroke="#CECCD1" stroke-width="0.5"/>
<path d="M200 800H133.333V866.667H200M200 800V866.667M200 800H266.667V866.667H200" stroke="#CECCD1" stroke-width="0.5"/>
<path d="M266.667 800H333.334V866.667H266.667V800Z" stroke="#CECCD1" stroke-width="0.5"/>
<path d="M400 800H333.333V866.667H400M400 800V866.667M400 800H466.667V866.667H400" stroke="#CECCD1" stroke-width="0.5"/>
<path d="M466.667 800H533.334V866.667H466.667V800Z" stroke="#CECCD1" stroke-width="0.5"/>
<path d="M600 800H533.333V866.667H600M600 800V866.667M600 800H666.667M600 866.667H666.667M666.667 800V866.667M666.667 800H733.334V866.667H666.667" stroke="#CECCD1" stroke-width="0.5"/>
<path d="M800 800H733.333V866.667H800M800 800V866.667M800 800H866.667V866.667H800M66.667 866.667H0V933.334H66.667M66.667 866.667V933.334M66.667 866.667H133.334V933.334H66.667" stroke="#CECCD1" stroke-width="0.5"/>
<path d="M200 866.668H133.333V933.335H200M200 866.668V933.335M200 866.668H266.667V933.335H200" stroke="#CECCD1" stroke-width="0.5"/>
<path d="M266.667 866.668H333.334V933.335H266.667V866.668Z" stroke="#CECCD1" stroke-width="0.5"/>
<path d="M400 866.668H333.333V933.335H400M400 866.668V933.335M400 866.668H466.667V933.335H400" stroke="#CECCD1" stroke-width="0.5"/>
<path d="M466.667 866.668H533.334V933.335H466.667V866.668Z" stroke="#CECCD1" stroke-width="0.5"/>
<path d="M600 866.668H533.333V933.335H600M600 866.668V933.335M600 866.668H666.667M600 933.335H666.667M666.667 866.668V933.335M666.667 866.668H733.334V933.335H666.667" stroke="#CECCD1" stroke-width="0.5"/>
<path d="M800 866.668H733.333V933.335H800M800 866.668V933.335M800 866.668H866.667V933.335H800M66.667 933.334H0V1000H66.667M66.667 933.334V1000M66.667 933.334H133.334V1000H66.667" stroke="#CECCD1" stroke-width="0.5"/>
<path d="M200 933.332H133.333V999.999H200M200 933.332V999.999M200 933.332H266.667V999.999H200" stroke="#CECCD1" stroke-width="0.5"/>
<path d="M266.667 933.332H333.334V999.999H266.667V933.332Z" stroke="#CECCD1" stroke-width="0.5"/>
<path d="M400 933.332H333.333V999.999H400M400 933.332V999.999M400 933.332H466.667V999.999H400" stroke="#CECCD1" stroke-width="0.5"/>
<path d="M466.667 933.332H533.334V999.999H466.667V933.332Z" stroke="#CECCD1" stroke-width="0.5"/>
<path d="M600 933.332H533.333V999.999H600M600 933.332V999.999M600 933.332H666.667M600 999.999H666.667M666.667 933.332V999.999M666.667 933.332H733.334V999.999H666.667" stroke="#CECCD1" stroke-width="0.5"/>
<path d="M800 933.332H733.333V999.999H800M800 933.332V999.999M800 933.332H866.667V999.999H800M66.667 999.999H0V1066.67H66.667M66.667 999.999V1066.67M66.667 999.999H133.334V1066.67H66.667" stroke="#CECCD1" stroke-width="0.5"/>
<path d="M200 1000H133.333V1066.67H200M200 1000V1066.67M200 1000H266.667V1066.67H200" stroke="#CECCD1" stroke-width="0.5"/>
<path d="M266.667 1000H333.334V1066.67H266.667V1000Z" stroke="#CECCD1" stroke-width="0.5"/>
<path d="M400 1000H333.333V1066.67H400M400 1000V1066.67M400 1000H466.667V1066.67H400" stroke="#CECCD1" stroke-width="0.5"/>
<path d="M466.667 1000H533.334V1066.67H466.667V1000Z" stroke="#CECCD1" stroke-width="0.5"/>
<path d="M600 1000H533.333V1066.67H600M600 1000V1066.67M600 1000H666.667M600 1066.67H666.667M666.667 1000V1066.67M666.667 1000H733.334V1066.67H666.667" stroke="#CECCD1" stroke-width="0.5"/>
<path d="M800 1000H733.333V1066.67H800M800 1000V1066.67M800 1000H866.667V1066.67H800M66.667 1066.67H0V1133.33H66.667M66.667 1066.67V1133.33M66.667 1066.67H133.334V1133.33H66.667" stroke="#CECCD1" stroke-width="0.5"/>
</g>
<g clip-path="url(#clip5_1007_4342)">
<path d="M866.667 800H800V866.667H866.667M866.667 800V866.667M866.667 800H933.334V866.667H866.667" stroke="#CECCD1" stroke-width="0.5"/>
<path d="M1000 800H933.333V866.667H1000M1000 800V866.667M1000 800H1066.67V866.667H1000" stroke="#CECCD1" stroke-width="0.5"/>
<path d="M1066.67 800H1133.33V866.667H1066.67V800Z" stroke="#CECCD1" stroke-width="0.5"/>
<path d="M1200 800H1133.33V866.667H1200M1200 800V866.667M1200 800H1266.67V866.667H1200" stroke="#CECCD1" stroke-width="0.5"/>
<path d="M1266.67 800H1333.33V866.667H1266.67V800Z" stroke="#CECCD1" stroke-width="0.5"/>
<path d="M1400 800H1333.33V866.667H1400M1400 800V866.667M1400 800H1466.67M1400 866.667H1466.67M1466.67 800V866.667M1466.67 800H1533.33V866.667H1466.67" stroke="#CECCD1" stroke-width="0.5"/>
<path d="M1600 800H1533.33V866.667H1600M1600 800V866.667M1600 800H1666.67V866.667H1600M866.667 866.667H800V933.334H866.667M866.667 866.667V933.334M866.667 866.667H933.334V933.334H866.667" stroke="#CECCD1" stroke-width="0.5"/>
<path d="M1000 866.668H933.333V933.335H1000M1000 866.668V933.335M1000 866.668H1066.67V933.335H1000" stroke="#CECCD1" stroke-width="0.5"/>
<path d="M1066.67 866.668H1133.33V933.335H1066.67V866.668Z" stroke="#CECCD1" stroke-width="0.5"/>
<path d="M1200 866.668H1133.33V933.335H1200M1200 866.668V933.335M1200 866.668H1266.67V933.335H1200" stroke="#CECCD1" stroke-width="0.5"/>
<path d="M1266.67 866.668H1333.33V933.335H1266.67V866.668Z" stroke="#CECCD1" stroke-width="0.5"/>
<path d="M1400 866.668H1333.33V933.335H1400M1400 866.668V933.335M1400 866.668H1466.67M1400 933.335H1466.67M1466.67 866.668V933.335M1466.67 866.668H1533.33V933.335H1466.67" stroke="#CECCD1" stroke-width="0.5"/>
<path d="M1600 866.668H1533.33V933.335H1600M1600 866.668V933.335M1600 866.668H1666.67V933.335H1600M866.667 933.334H800V1000H866.667M866.667 933.334V1000M866.667 933.334H933.334V1000H866.667" stroke="#CECCD1" stroke-width="0.5"/>
<path d="M1000 933.332H933.333V999.999H1000M1000 933.332V999.999M1000 933.332H1066.67V999.999H1000" stroke="#CECCD1" stroke-width="0.5"/>
<path d="M1066.67 933.332H1133.33V999.999H1066.67V933.332Z" stroke="#CECCD1" stroke-width="0.5"/>
<path d="M1200 933.332H1133.33V999.999H1200M1200 933.332V999.999M1200 933.332H1266.67V999.999H1200" stroke="#CECCD1" stroke-width="0.5"/>
<path d="M1266.67 933.332H1333.33V999.999H1266.67V933.332Z" stroke="#CECCD1" stroke-width="0.5"/>
<path d="M1400 933.332H1333.33V999.999H1400M1400 933.332V999.999M1400 933.332H1466.67M1400 999.999H1466.67M1466.67 933.332V999.999M1466.67 933.332H1533.33V999.999H1466.67" stroke="#CECCD1" stroke-width="0.5"/>
<path d="M1600 933.332H1533.33V999.999H1600M1600 933.332V999.999M1600 933.332H1666.67V999.999H1600M866.667 999.999H800V1066.67H866.667M866.667 999.999V1066.67M866.667 999.999H933.334V1066.67H866.667" stroke="#CECCD1" stroke-width="0.5"/>
<path d="M1000 1000H933.333V1066.67H1000M1000 1000V1066.67M1000 1000H1066.67V1066.67H1000" stroke="#CECCD1" stroke-width="0.5"/>
<path d="M1066.67 1000H1133.33V1066.67H1066.67V1000Z" stroke="#CECCD1" stroke-width="0.5"/>
<path d="M1200 1000H1133.33V1066.67H1200M1200 1000V1066.67M1200 1000H1266.67V1066.67H1200" stroke="#CECCD1" stroke-width="0.5"/>
<path d="M1266.67 1000H1333.33V1066.67H1266.67V1000Z" stroke="#CECCD1" stroke-width="0.5"/>
<path d="M1400 1000H1333.33V1066.67H1400M1400 1000V1066.67M1400 1000H1466.67M1400 1066.67H1466.67M1466.67 1000V1066.67M1466.67 1000H1533.33V1066.67H1466.67" stroke="#CECCD1" stroke-width="0.5"/>
<path d="M1600 1000H1533.33V1066.67H1600M1600 1000V1066.67M1600 1000H1666.67V1066.67H1600M866.667 1066.67H800V1133.33H866.667M866.667 1066.67V1133.33M866.667 1066.67H933.334V1133.33H866.667" stroke="#CECCD1" stroke-width="0.5"/>
</g>
<g clip-path="url(#clip6_1007_4342)">
<path d="M1666.67 800H1600V866.667H1666.67M1666.67 800V866.667M1666.67 800H1733.33V866.667H1666.67" stroke="#CECCD1" stroke-width="0.5"/>
<path d="M1800 800H1733.33V866.667H1800M1800 800V866.667M1800 800H1866.67V866.667H1800" stroke="#CECCD1" stroke-width="0.5"/>
<path d="M1866.67 800H1933.33V866.667H1866.67V800Z" stroke="#CECCD1" stroke-width="0.5"/>
<path d="M2000 800H1933.33V866.667H2000M2000 800V866.667M2000 800H2066.67V866.667H2000" stroke="#CECCD1" stroke-width="0.5"/>
<path d="M2400 800H2333.33V866.667H2400M2400 800V866.667M2400 800H2466.67V866.667H2400M1666.67 866.667H1600V933.334H1666.67M1666.67 866.667V933.334M1666.67 866.667H1733.33V933.334H1666.67" stroke="#CECCD1" stroke-width="0.5"/>
<path d="M1800 866.668H1733.33V933.335H1800M1800 866.668V933.335M1800 866.668H1866.67V933.335H1800" stroke="#CECCD1" stroke-width="0.5"/>
<path d="M1866.67 866.668H1933.33V933.335H1866.67V866.668Z" stroke="#CECCD1" stroke-width="0.5"/>
<path d="M2000 866.668H1933.33V933.335H2000M2000 866.668V933.335M2000 866.668H2066.67V933.335H2000" stroke="#CECCD1" stroke-width="0.5"/>
<path d="M2400 866.668H2333.33V933.335H2400M2400 866.668V933.335M2400 866.668H2466.67V933.335H2400M1666.67 933.334H1600V1000H1666.67M1666.67 933.334V1000M1666.67 933.334H1733.33V1000H1666.67" stroke="#CECCD1" stroke-width="0.5"/>
<path d="M1800 933.332H1733.33V999.999H1800M1800 933.332V999.999M1800 933.332H1866.67V999.999H1800" stroke="#CECCD1" stroke-width="0.5"/>
<path d="M1866.67 933.332H1933.33V999.999H1866.67V933.332Z" stroke="#CECCD1" stroke-width="0.5"/>
<path d="M2000 933.332H1933.33V999.999H2000M2000 933.332V999.999M2000 933.332H2066.67V999.999H2000" stroke="#CECCD1" stroke-width="0.5"/>
<path d="M2400 933.332H2333.33V999.999H2400M2400 933.332V999.999M2400 933.332H2466.67V999.999H2400M1666.67 999.999H1600V1066.67H1666.67M1666.67 999.999V1066.67M1666.67 999.999H1733.33V1066.67H1666.67" stroke="#CECCD1" stroke-width="0.5"/>
<path d="M1800 1000H1733.33V1066.67H1800M1800 1000V1066.67M1800 1000H1866.67V1066.67H1800" stroke="#CECCD1" stroke-width="0.5"/>
<path d="M1866.67 1000H1933.33V1066.67H1866.67V1000Z" stroke="#CECCD1" stroke-width="0.5"/>
<path d="M2000 1000H1933.33V1066.67H2000M2000 1000V1066.67M2000 1000H2066.67V1066.67H2000" stroke="#CECCD1" stroke-width="0.5"/>
<path d="M2400 1000H2333.33V1066.67H2400M2400 1000V1066.67M2400 1000H2466.67V1066.67H2400M1666.67 1066.67H1600V1133.33H1666.67M1666.67 1066.67V1133.33M1666.67 1066.67H1733.33V1133.33H1666.67" stroke="#CECCD1" stroke-width="0.5"/>
</g>
</g>
<defs>
<clipPath id="clip0_1007_4342">
<rect width="2000" height="1000" fill="white"/>
</clipPath>
<clipPath id="clip1_1007_4342">
<rect width="800" height="800" fill="white"/>
</clipPath>
<clipPath id="clip2_1007_4342">
<rect width="800" height="800" fill="white" transform="translate(800)"/>
</clipPath>
<clipPath id="clip3_1007_4342">
<rect width="400" height="800" fill="white" transform="translate(1600)"/>
</clipPath>
<clipPath id="clip4_1007_4342">
<rect width="800" height="200" fill="white" transform="translate(0 800)"/>
</clipPath>
<clipPath id="clip5_1007_4342">
<rect width="800" height="200" fill="white" transform="translate(800 800)"/>
</clipPath>
<clipPath id="clip6_1007_4342">
<rect width="400" height="200" fill="white" transform="translate(1600 800)"/>
</clipPath>
</defs>
</svg>
